# Blender 3.6.4
# www.blender.org
mtllib star.mtl
o star2
v 1.830650 -1.921602 -0.078439
v 1.830650 1.877403 -0.078439
v 1.830650 -1.921602 -0.083217
v 1.830650 1.877403 -0.083217
v -1.807847 -1.921602 -0.078439
v -1.807847 1.877403 -0.078439
v -1.807847 -1.921602 -0.083217
v -1.807847 1.877403 -0.083217
v 0.006571 0.008601 -0.083217
v -0.002417 0.024944 -0.083217
v 0.013732 -0.004421 -0.083217
v 0.015508 -0.007651 -0.083217
v -0.014698 -0.019913 -0.078439
v -0.010046 -0.019913 -0.078439
v 0.012920 -0.019913 -0.083217
v 0.005213 -0.019913 -0.083217
v 0.014030 -0.019913 -0.083217
v -0.015142 0.001804 -0.078439
v -0.017177 -0.017443 -0.078439
v -0.022595 -0.017443 -0.078439
v -0.022595 -0.017443 -0.083217
v 0.011989 -0.017443 -0.078439
v 0.017762 -0.017443 -0.083217
v -0.008273 -0.017443 -0.078439
v -0.008273 -0.017443 -0.083217
v 0.003440 -0.017443 -0.078439
v 0.012166 -0.007268 -0.078439
v 0.012166 -0.007268 -0.083217
v 0.007993 0.000322 -0.078439
v -0.002417 0.019250 -0.078439
v -0.002417 0.019250 -0.083217
v 0.003440 0.008601 -0.083217
v -0.018589 -0.010158 -0.083217
v -0.017000 -0.007268 -0.083217
v -0.015434 -0.004421 -0.078439
v -0.012826 0.000322 -0.078439
v -0.005210 0.014171 -0.083217
v -0.005219 0.014155 -0.078439
v -0.006110 -0.027070 -0.078439
v -0.018565 -0.004421 -0.083217
v 0.005213 0.011071 -0.083217
v 0.002081 0.011071 -0.078439
v -0.018268 0.011071 -0.083217
v 0.001531 -0.026607 -0.083217
v 0.007919 -0.014992 -0.083217
v 0.012344 0.008601 -0.078439
v 0.012362 0.008601 -0.083217
v -0.018002 0.008601 -0.083217
v -0.019886 0.003675 -0.078439
v -0.012826 -0.009163 -0.078439
v -0.002417 -0.028092 -0.078439
v -0.004737 -0.023873 -0.078439
v 0.013768 0.001338 -0.078439
v 0.007993 -0.009163 -0.078439
v 0.002081 -0.019913 -0.083217
v 0.017843 -0.011896 -0.083217
v 0.022252 -0.019913 -0.083217
v -0.002417 -0.033786 -0.083217
v -0.006098 -0.027092 -0.083217
v -0.010046 -0.019913 -0.083217
v -0.014660 -0.019913 -0.083217
v -0.018268 -0.019913 -0.083217
v -0.027085 -0.019913 -0.083217
v -0.020351 -0.007667 -0.083217
v -0.020476 -0.000947 -0.083217
v -0.022676 0.003055 -0.083217
v -0.027085 0.011071 -0.083217
v 0.022252 0.011071 -0.083217
v 0.015508 -0.001191 -0.083217
v 0.013435 0.011071 -0.083217
v 0.009812 0.011071 -0.083217
v 0.001265 0.018250 -0.083217
v -0.006364 0.017766 -0.083217
v -0.010046 0.011071 -0.083217
v -0.016804 0.008601 -0.083217
v -0.011404 0.008601 -0.083217
v -0.012752 0.006150 -0.083217
v -0.015181 0.001733 -0.083217
v -0.012858 0.000263 -0.083217
v -0.010565 0.004432 -0.083217
v -0.006914 0.011071 -0.083217
v -0.000089 0.015018 -0.083217
v 0.002081 0.011071 -0.083217
v -0.002260 0.011071 -0.083217
v -0.002621 0.008601 -0.083217
v 0.008025 0.000263 -0.083217
v 0.010601 -0.004421 -0.083217
v 0.008025 -0.009105 -0.083217
v 0.010348 -0.010574 -0.083217
v 0.015062 -0.012533 -0.083217
v 0.011971 -0.017443 -0.083217
v 0.012166 -0.001574 -0.083217
v 0.009487 0.003299 -0.083217
v 0.013756 0.001316 -0.083217
v 0.017762 0.008601 -0.083217
v -0.015434 -0.004421 -0.083217
v -0.012858 -0.009105 -0.083217
v -0.002212 -0.017443 -0.083217
v 0.003440 -0.017443 -0.083217
v -0.008273 0.008601 -0.083217
v 0.006571 -0.017443 -0.083217
v -0.002260 -0.019913 -0.083217
v -0.006914 -0.019913 -0.083217
v -0.004744 -0.023860 -0.083217
v -0.002417 -0.028092 -0.083217
v -0.000089 -0.023860 -0.083217
v -0.017000 -0.001574 -0.083217
v -0.019895 0.003691 -0.083217
v -0.022595 0.008601 -0.083217
v -0.017195 -0.017443 -0.083217
v -0.014320 -0.012141 -0.083217
v -0.011404 -0.017443 -0.083217
v 0.013462 0.011071 -0.078439
v 0.022252 0.011071 -0.078439
v 0.015529 -0.001153 -0.078439
v 0.012166 -0.001574 -0.078439
v 0.017762 0.008601 -0.078439
v 0.005213 0.011071 -0.078439
v 0.001277 0.018228 -0.078439
v -0.002417 0.024944 -0.078439
v -0.006352 0.017788 -0.078439
v -0.010046 0.011071 -0.078439
v -0.018295 0.011071 -0.078439
v -0.027085 0.011071 -0.078439
v 0.009851 0.011071 -0.078439
v 0.012889 -0.019913 -0.078439
v 0.005213 -0.019913 -0.078439
v 0.001519 -0.026629 -0.078439
v -0.002417 -0.033786 -0.078439
v -0.014359 -0.012069 -0.078439
v -0.017000 -0.007268 -0.078439
v -0.018601 -0.010180 -0.078439
v -0.018295 -0.019913 -0.078439
v -0.027085 -0.019913 -0.078439
v -0.020371 -0.007705 -0.078439
v -0.018565 -0.004421 -0.078439
v -0.020496 -0.000910 -0.078439
v -0.022690 0.003079 -0.078439
v -0.016822 0.008601 -0.078439
v -0.022595 0.008601 -0.078439
v -0.017000 -0.001574 -0.078439
v -0.006914 -0.019913 -0.078439
v -0.000096 -0.023873 -0.078439
v 0.002081 -0.019913 -0.078439
v -0.002274 -0.019913 -0.078439
v -0.002231 -0.017443 -0.078439
v 0.010309 -0.010646 -0.078439
v 0.007905 -0.015017 -0.078439
v 0.006571 -0.017443 -0.078439
v 0.009526 0.003227 -0.078439
v 0.006571 0.008601 -0.078439
v -0.006914 0.011071 -0.078439
v -0.011404 -0.017443 -0.078439
v -0.002274 0.011071 -0.078439
v -0.002602 0.008601 -0.078439
v 0.014003 -0.019913 -0.078439
v 0.022252 -0.019913 -0.078439
v 0.017857 -0.011921 -0.078439
v 0.015529 -0.007688 -0.078439
v 0.013732 -0.004421 -0.078439
v -0.011404 0.008601 -0.078439
v -0.012738 0.006176 -0.078439
v -0.010549 0.004461 -0.078439
v -0.008273 0.008601 -0.078439
v 0.003440 0.008601 -0.078439
v 0.010601 -0.004421 -0.078439
v -0.000096 0.015031 -0.078439
v 0.017762 -0.017443 -0.078439
v 0.015053 -0.012517 -0.078439
vn 1.0000 -0.0000 -0.0000
vn -1.0000 -0.0000 -0.0000
vn -0.0000 -1.0000 -0.0000
vn -0.0000 1.0000 -0.0000
vn -0.0000 -0.0000 -1.0000
vn -0.0000 -0.0000 1.0000
vn -0.8762 -0.4819 -0.0000
vn 0.8762 -0.4819 -0.0000
vn 0.8762 0.4819 -0.0000
vn -0.8762 0.4819 -0.0000
vt 0.625000 0.000000
vt 0.375000 0.250000
vt 0.375000 0.000000
vt 0.625000 0.500000
vt 0.375000 0.750000
vt 0.375000 0.500000
vt 0.125000 0.750000
vt 0.125000 0.500000
vt 0.875000 0.500000
vt 0.625000 0.750000
vt 0.499231 0.375949
vt 0.500144 0.377644
vt 0.502443 0.375790
vt 0.502387 0.376141
vt 0.502183 0.375939
vt 0.501671 0.375132
vt 0.501541 0.374838
vt 0.502020 0.374934
vt 0.500855 0.376667
vt 0.500855 0.375232
vt 0.501472 0.376667
vt 0.503096 0.375949
vt 0.502655 0.375696
vt 0.502183 0.374860
vt 0.500306 0.374961
vt 0.500630 0.374748
vt 0.500758 0.375072
vt 0.500144 0.375939
vt 0.499884 0.376109
vt 0.499884 0.375790
vt 0.502020 0.377020
vt 0.502020 0.377336
vt 0.501697 0.377150
vt 0.500786 0.377061
vt 0.500306 0.376965
vt 0.500655 0.376767
vt 0.503096 0.874050
vt 0.502625 0.873780
vt 0.502183 0.872960
vt 0.501667 0.874871
vt 0.502020 0.875065
vt 0.501542 0.875163
vt 0.499231 0.874050
vt 0.500144 0.875746
vt 0.375000 1.000000
vt 0.500306 0.873036
vt 0.500784 0.872939
vt 0.500660 0.873230
vt 0.501573 0.873176
vt 0.501696 0.872850
vt 0.502020 0.873061
vt 0.501475 0.874766
vt 0.500851 0.874766
vt 0.500851 0.873335
vt 0.502386 0.873858
vt 0.502443 0.874210
vt 0.502183 0.874060
vt 0.500144 0.874060
vt 0.499883 0.874210
vt 0.499883 0.873891
vt 0.500306 0.875040
vt 0.500754 0.874925
vt 0.500631 0.875251
vt 1.000000 0.484133
vt 1.000000 0.364343
vt 1.000000 0.364343
vt 1.000000 0.000000
vt 1.000000 0.149731
vt 1.000000 0.149239
vt 1.000000 0.309277
vt 1.000000 0.654638
vt 1.000000 0.727479
vt 1.000000 0.726639
vt 1.000000 0.821839
vt 1.000000 1.000000
vt 1.000000 0.821290
vt 1.000000 0.482543
vt 1.000000 0.591168
vt 1.000000 0.591168
vt 0.345362 1.000000
vt 0.251835 1.000000
vt 0.345362 1.000000
vt 0.178161 1.000000
vt 0.000000 1.000000
vt 0.178710 1.000000
vt 0.251062 1.000000
vt 0.810229 1.000000
vt 0.654639 1.000000
vt 0.810852 1.000000
vt 0.833348 1.000000
vt 0.832799 1.000000
vt 0.591168 1.000000
vt 0.503183 1.000000
vt 0.502893 1.000000
vt 0.408832 1.000000
vt 0.272990 0.727010
vt 0.345362 0.654638
vt 0.272151 0.727849
vt 0.408832 0.591168
vt 0.482543 0.517457
vt 0.840454 0.159546
vt 0.690723 0.309277
vt 0.839963 0.160037
vt 0.581020 0.418980
vt 0.484133 0.515867
vt 0.581588 0.418412
vt 0.635657 0.364343
vt 0.134247 1.000000
vt 0.277294 1.000000
vt 0.133806 1.000000
vt 0.856953 1.000000
vt 0.722706 1.000000
vt 0.856512 1.000000
vt 0.504605 1.000000
vt 0.354887 1.000000
vt 0.505066 1.000000
vt 0.645113 1.000000
vt 0.866194 0.866194
vt 0.865753 0.865753
vt 0.722706 0.722706
vt 0.645113 0.645113
vt 0.517457 0.517457
vt 0.645113 0.645113
vt 0.114990 0.114990
vt 0.000000 0.000000
vt 0.115345 0.115345
vt 0.222907 0.222907
vt 0.515867 0.515867
vt 0.290226 0.290226
vt 0.061149 0.971593
vt 0.049172 0.778615
vt 0.049057 0.779278
vt 0.044346 0.702105
vt 0.035126 0.499549
vt 0.039642 0.626697
vt 0.035302 0.501057
vt 0.008609 0.134873
vt 0.008606 0.134418
vt 0.013818 0.216487
vt 0.013860 0.216468
vt 0.026499 0.390736
vt 0.017927 0.281898
vt 0.017872 0.281923
vt 0.026614 0.391478
vt 1.000000 0.482543
vt 1.000000 0.149731
vt 1.000000 0.149240
vt 1.000000 0.821839
vt 1.000000 0.821290
vt 1.000000 0.732087
vt 1.000000 0.654639
vt 1.000000 0.732910
vt 1.000000 0.484133
vt 1.000000 0.591168
vt 1.000000 0.482543
vt 0.251356 1.000000
vt 0.345362 1.000000
vt 0.178710 1.000000
vt 0.178161 1.000000
vt 0.252131 1.000000
vt 0.408832 1.000000
vt 0.496817 1.000000
vt 0.497107 1.000000
vt 0.591168 1.000000
vt 0.821839 1.000000
vt 0.821290 1.000000
vt 0.654638 1.000000
vt 0.272522 0.727478
vt 0.273361 0.726639
vt 0.345362 0.654638
vt 0.408832 0.591168
vt 0.484133 0.515867
vt 0.482543 0.517457
vt 0.839963 0.160037
vt 0.840454 0.159545
vt 0.690723 0.309277
vt 0.482543 0.517457
vt 0.581588 0.418412
vt 0.581020 0.418979
vt 0.635657 0.364343
vt 0.133806 1.000000
vt 0.134247 1.000000
vt 0.277294 1.000000
vt 0.886194 1.000000
vt 0.856512 1.000000
vt 0.722706 1.000000
vt 0.856953 1.000000
vt 0.504605 1.000000
vt 0.645113 1.000000
vt 0.505066 1.000000
vt 0.865753 0.865753
vt 0.866193 0.866193
vt 0.722706 0.722706
vt 0.515867 0.515867
vt 0.115344 0.115344
vt 0.222907 0.222907
vt 0.114990 0.114990
vt 0.517457 0.517457
vt 0.290226 0.290226
vt 0.061338 0.971506
vt 0.049048 0.779282
vt 0.044197 0.702174
vt 0.049164 0.778618
vt 0.044335 0.702110
vt 0.035207 0.499512
vt 0.039691 0.626675
vt 0.035382 0.501020
vt 0.007228 0.111987
vt 0.013968 0.216418
vt 0.007185 0.111652
vt 0.013927 0.216437
vt 0.017952 0.281886
vt 0.018006 0.281861
vt 0.625000 0.250000
vt 0.875000 0.750000
vt 0.501376 0.374718
vt 0.501163 0.374840
vt 0.500951 0.374718
vt 0.500672 0.374557
vt 0.500144 0.374254
vt 0.502183 0.374254
vt 0.500144 0.374819
vt 0.500144 0.374896
vt 0.499703 0.375678
vt 0.500144 0.375425
vt 0.499672 0.376202
vt 0.500144 0.376474
vt 0.500144 0.376791
vt 0.500144 0.377039
vt 0.500950 0.377182
vt 0.501655 0.377341
vt 0.501163 0.377059
vt 0.501392 0.377190
vt 0.502183 0.377644
vt 0.502183 0.375640
vt 0.502721 0.375949
vt 0.502183 0.376258
vt 0.502020 0.375332
vt 0.501351 0.374947
vt 0.502020 0.374563
vt 0.502020 0.375963
vt 0.502020 0.376352
vt 0.501746 0.376509
vt 0.501472 0.375232
vt 0.501163 0.376844
vt 0.500306 0.376352
vt 0.500306 0.375935
vt 0.500306 0.375547
vt 0.502020 0.375547
vt 0.501163 0.375055
vt 0.502183 0.377039
vt 0.502183 0.376474
vt 0.502623 0.376221
vt 0.502183 0.375109
vt 0.502183 0.375425
vt 0.500468 0.375239
vt 0.500306 0.375332
vt 0.500306 0.374563
vt 0.500976 0.374947
vt 0.500144 0.375640
vt 0.500144 0.376258
vt 0.499606 0.375949
vt 0.501351 0.376951
vt 0.501568 0.376826
vt 0.501859 0.376660
vt 0.502020 0.376938
vt 0.502020 0.376567
vt 0.500976 0.376951
vt 0.500306 0.377336
vt 0.500306 0.376567
vt 0.502183 0.874893
vt 0.502183 0.874575
vt 0.502654 0.874304
vt 0.502183 0.875142
vt 0.502183 0.875746
vt 0.625000 1.000000
vt 0.502183 0.872356
vt 0.502183 0.873526
vt 0.502020 0.874668
vt 0.502020 0.875437
vt 0.501351 0.875053
vt 0.501394 0.872808
vt 0.501163 0.872941
vt 0.500947 0.872817
vt 0.500144 0.872356
vt 0.500144 0.872960
vt 0.500144 0.873207
vt 0.499673 0.873797
vt 0.501657 0.872658
vt 0.500144 0.873526
vt 0.499702 0.874321
vt 0.500144 0.875179
vt 0.500144 0.874575
vt 0.500144 0.875102
vt 0.500948 0.875284
vt 0.501163 0.875160
vt 0.501378 0.875284
vt 0.500670 0.875443
vt 0.500306 0.873433
vt 0.500306 0.872664
vt 0.500976 0.873049
vt 0.502020 0.873433
vt 0.501861 0.873341
vt 0.501351 0.873049
vt 0.502020 0.872664
vt 0.500306 0.874453
vt 0.500306 0.874063
vt 0.500306 0.873648
vt 0.501163 0.873156
vt 0.501475 0.873335
vt 0.501748 0.873492
vt 0.502020 0.873648
vt 0.502020 0.874038
vt 0.501163 0.874945
vt 0.502020 0.874453
vt 0.502721 0.874050
vt 0.502183 0.874360
vt 0.502183 0.873742
vt 0.500144 0.874360
vt 0.499606 0.874051
vt 0.500144 0.873742
vt 0.500306 0.875437
vt 0.500306 0.874668
vt 0.500466 0.874760
vt 0.500976 0.875053
vt 1.000000 0.482543
vt 1.000000 0.654638
vt 0.408832 1.000000
vt 0.482543 0.517457
vt 0.515867 0.515867
vt 0.061338 0.971506
vt 0.044208 0.702169
vt 0.039521 0.626754
vt 1.000000 0.484133
vt 0.591168 1.000000
vt 0.690723 0.309277
vt 0.484133 0.515867
vt 0.039569 0.626731
vt 0.035207 0.499512
s 0
f 2/1/1 1/3/1 3/2/1
f 8/4/2 7/6/2 5/5/2
f 7/6/3 3/8/3 1/7/3
f 4/9/4 8/4/4 6/10/4
f 58/11/5 7/6/5 63/12/5
f 82/13/5 84/15/5 37/14/5
f 93/16/5 47/18/5 94/17/5
f 97/19/5 79/21/5 88/20/5
f 10/22/5 70/24/5 72/23/5
f 91/25/5 89/27/5 90/26/5
f 102/28/5 106/30/5 104/29/5
f 48/31/5 108/33/5 109/32/5
f 33/34/5 111/36/5 110/35/5
f 120/37/6 123/39/6 121/38/6
f 150/40/6 53/42/6 46/41/6
f 129/43/6 1/45/6 157/44/6
f 19/46/6 130/48/6 132/47/6
f 18/49/6 139/51/6 49/50/6
f 29/52/6 50/54/6 54/53/6
f 38/55/6 154/57/6 167/56/6
f 145/58/6 52/60/6 143/59/6
f 22/61/6 169/63/6 147/62/6
f 150/64/7 151/66/7 9/65/7
f 10/67/7 72/69/7 119/68/7
f 72/69/7 41/70/7 118/70/7
f 11/71/7 12/73/7 159/72/7
f 158/74/7 56/76/7 57/75/7
f 12/73/7 56/76/7 158/74/7
f 93/77/7 92/79/7 116/78/7
f 14/80/4 60/82/4 61/81/4
f 133/83/4 62/85/4 63/84/4
f 133/83/4 13/86/4 61/81/4
f 126/87/4 15/89/4 16/88/4
f 157/75/4 57/75/4 17/90/4
f 15/89/4 126/87/4 156/91/4
f 144/92/4 55/92/4 102/93/4
f 145/94/4 102/93/4 103/95/4
f 134/84/8 63/84/8 64/96/8
f 40/97/8 136/97/8 135/98/8
f 141/99/8 107/99/8 78/100/8
f 10/67/8 120/67/8 121/101/8
f 74/102/8 73/103/8 121/101/8
f 77/104/8 162/106/8 18/105/8
f 162/106/8 77/104/8 76/107/8
f 19/108/3 20/84/3 21/84/3
f 153/109/3 19/108/3 110/110/3
f 23/75/3 168/75/3 22/111/3
f 149/112/3 101/112/3 91/113/3
f 146/114/3 24/115/3 25/115/3
f 98/116/3 99/117/3 26/117/3
f 168/75/9 23/75/9 90/118/9
f 169/119/9 90/118/9 28/120/9
f 166/121/9 87/123/9 86/122/9
f 167/124/9 82/126/9 31/125/9
f 83/127/9 82/126/9 167/124/9
f 29/128/9 86/122/9 32/129/9
f 20/130/10 132/132/10 33/131/10
f 34/133/10 33/131/10 132/132/10
f 36/134/10 79/136/10 96/135/10
f 31/125/10 37/138/10 38/137/10
f 37/138/10 81/140/10 152/139/10
f 163/141/10 164/143/10 100/142/10
f 80/144/10 79/136/10 36/134/10
f 153/66/9 112/65/9 111/145/9
f 58/67/9 59/147/9 39/146/9
f 39/146/9 59/147/9 60/70/9
f 138/148/9 66/149/9 67/75/9
f 65/150/9 137/152/9 136/151/9
f 66/149/9 138/148/9 137/152/9
f 130/153/9 111/155/9 34/154/9
f 125/156/3 118/157/3 41/157/3
f 114/84/3 113/159/3 70/158/3
f 125/156/3 71/160/3 70/158/3
f 42/161/3 154/163/3 84/162/3
f 81/164/3 84/162/3 154/163/3
f 123/165/3 124/75/3 67/75/3
f 43/166/3 74/167/3 122/167/3
f 68/84/10 69/169/10 115/168/10
f 69/169/10 11/170/10 160/170/10
f 28/171/10 89/173/10 147/172/10
f 129/67/10 128/175/10 44/174/10
f 16/176/10 44/174/10 128/175/10
f 89/177/10 45/179/10 148/178/10
f 148/178/10 45/179/10 101/180/10
f 117/84/4 95/84/4 47/181/4
f 46/182/4 47/181/4 9/183/4
f 140/75/4 48/184/4 109/75/4
f 75/185/4 139/187/4 161/186/4
f 155/188/4 85/190/4 100/189/4
f 165/115/4 32/115/4 85/190/4
f 49/191/7 140/75/7 109/75/7
f 108/192/7 107/193/7 141/120/7
f 50/194/7 35/121/7 96/123/7
f 104/195/7 105/125/7 51/125/7
f 103/196/7 104/195/7 52/197/7
f 97/198/7 25/199/7 24/199/7
f 95/200/8 117/130/8 53/201/8
f 116/202/8 92/204/8 94/203/8
f 54/205/8 88/207/8 87/206/8
f 51/125/8 105/125/8 106/208/8
f 55/209/8 144/211/8 143/210/8
f 26/212/8 99/213/8 88/207/8
f 2/1/1 3/2/1 4/214/1
f 8/4/2 5/5/2 6/10/2
f 7/6/3 1/7/3 5/5/3
f 4/9/4 6/10/4 2/215/4
f 69/216/5 12/218/5 11/217/5
f 12/218/5 69/216/5 56/219/5
f 56/219/5 68/221/5 57/220/5
f 69/216/5 68/221/5 56/219/5
f 57/220/5 58/11/5 17/222/5
f 17/222/5 44/224/5 15/223/5
f 58/11/5 44/224/5 17/222/5
f 15/223/5 44/224/5 16/225/5
f 59/226/5 61/228/5 60/227/5
f 58/11/5 62/229/5 59/226/5
f 59/226/5 62/229/5 61/228/5
f 62/229/5 58/11/5 63/12/5
f 63/12/5 66/231/5 64/230/5
f 64/230/5 65/233/5 40/232/5
f 64/230/5 66/231/5 65/233/5
f 4/214/5 57/220/5 68/221/5
f 67/234/5 63/12/5 8/4/5
f 8/4/5 63/12/5 7/6/5
f 66/231/5 63/12/5 67/234/5
f 3/2/5 57/220/5 4/214/5
f 3/2/5 58/11/5 57/220/5
f 3/2/5 7/6/5 58/11/5
f 84/15/5 82/13/5 83/235/5
f 82/13/5 37/14/5 31/236/5
f 37/14/5 84/15/5 81/237/5
f 47/18/5 93/16/5 9/238/5
f 93/16/5 94/17/5 92/239/5
f 94/17/5 47/18/5 95/240/5
f 85/241/5 80/243/5 100/242/5
f 80/243/5 86/244/5 79/21/5
f 79/21/5 97/19/5 96/245/5
f 86/244/5 88/20/5 79/21/5
f 97/19/5 98/247/5 25/246/5
f 98/247/5 88/20/5 99/248/5
f 97/19/5 88/20/5 98/247/5
f 85/241/5 86/244/5 80/243/5
f 86/244/5 85/241/5 32/249/5
f 88/20/5 86/244/5 87/250/5
f 43/251/5 73/253/5 74/252/5
f 43/251/5 10/22/5 73/253/5
f 8/4/5 10/22/5 67/234/5
f 67/234/5 10/22/5 43/251/5
f 68/221/5 10/22/5 4/214/5
f 4/214/5 10/22/5 8/4/5
f 71/254/5 72/23/5 70/24/5
f 70/24/5 10/22/5 68/221/5
f 72/23/5 71/254/5 41/255/5
f 45/256/5 91/25/5 101/257/5
f 91/25/5 90/26/5 23/258/5
f 90/26/5 89/27/5 28/259/5
f 89/27/5 91/25/5 45/256/5
f 106/30/5 102/28/5 55/260/5
f 102/28/5 104/29/5 103/261/5
f 104/29/5 106/30/5 105/262/5
f 108/33/5 78/264/5 107/263/5
f 78/264/5 75/266/5 77/265/5
f 77/265/5 75/266/5 76/267/5
f 78/264/5 108/33/5 75/266/5
f 75/266/5 108/33/5 48/31/5
f 111/36/5 33/34/5 34/268/5
f 33/34/5 110/35/5 21/269/5
f 110/35/5 111/36/5 112/270/5
f 125/271/6 119/273/6 118/272/6
f 125/271/6 113/274/6 119/273/6
f 119/273/6 113/274/6 120/37/6
f 114/275/6 120/37/6 113/274/6
f 6/10/6 120/37/6 2/276/6
f 2/276/6 120/37/6 114/275/6
f 123/39/6 120/37/6 124/277/6
f 124/277/6 120/37/6 6/10/6
f 121/38/6 123/39/6 122/278/6
f 150/40/6 46/41/6 151/279/6
f 46/41/6 53/42/6 117/280/6
f 53/42/6 150/40/6 116/281/6
f 137/282/6 135/284/6 136/283/6
f 134/285/6 129/43/6 133/286/6
f 133/286/6 39/288/6 13/287/6
f 137/282/6 138/289/6 135/284/6
f 135/284/6 138/289/6 134/285/6
f 6/10/6 134/285/6 124/277/6
f 124/277/6 134/285/6 138/289/6
f 13/287/6 39/288/6 14/290/6
f 133/286/6 129/43/6 39/288/6
f 129/43/6 156/292/6 128/291/6
f 128/291/6 126/294/6 127/293/6
f 5/5/6 134/285/6 6/10/6
f 114/275/6 157/44/6 2/276/6
f 2/276/6 157/44/6 1/45/6
f 159/295/6 115/297/6 160/296/6
f 115/297/6 158/298/6 114/275/6
f 115/297/6 159/295/6 158/298/6
f 1/45/6 129/43/6 5/5/6
f 5/5/6 129/43/6 134/285/6
f 128/291/6 156/292/6 126/294/6
f 158/298/6 157/44/6 114/275/6
f 156/292/6 129/43/6 157/44/6
f 130/48/6 19/46/6 153/299/6
f 19/46/6 132/47/6 20/300/6
f 132/47/6 130/48/6 131/301/6
f 139/51/6 162/303/6 161/302/6
f 162/303/6 139/51/6 18/49/6
f 18/49/6 49/50/6 141/304/6
f 49/50/6 139/51/6 140/305/6
f 54/53/6 146/307/6 26/306/6
f 146/307/6 50/54/6 24/308/6
f 50/54/6 36/310/6 35/309/6
f 163/311/6 155/313/6 164/312/6
f 50/54/6 29/52/6 36/310/6
f 36/310/6 29/52/6 163/311/6
f 54/53/6 50/54/6 146/307/6
f 29/52/6 54/53/6 166/314/6
f 155/313/6 29/52/6 165/315/6
f 163/311/6 29/52/6 155/313/6
f 38/55/6 167/56/6 30/316/6
f 167/56/6 154/57/6 42/317/6
f 154/57/6 38/55/6 152/318/6
f 145/58/6 143/59/6 144/319/6
f 143/59/6 52/60/6 51/320/6
f 52/60/6 145/58/6 142/321/6
f 169/63/6 22/61/6 168/322/6
f 22/61/6 148/324/6 149/323/6
f 148/324/6 22/61/6 147/62/6
f 147/62/6 169/63/6 27/325/6
f 150/64/7 9/65/7 93/326/7
f 10/67/7 119/68/7 120/67/7
f 72/69/7 118/70/7 119/68/7
f 11/71/7 159/72/7 160/327/7
f 158/74/7 57/75/7 157/75/7
f 12/73/7 158/74/7 159/72/7
f 93/77/7 116/78/7 150/64/7
f 14/80/4 61/81/4 13/86/4
f 133/83/4 63/84/4 134/84/4
f 133/83/4 61/81/4 62/85/4
f 126/87/4 16/88/4 127/88/4
f 157/75/4 17/90/4 156/91/4
f 15/89/4 156/91/4 17/90/4
f 144/92/4 102/93/4 145/94/4
f 145/94/4 103/95/4 142/328/4
f 134/84/8 64/96/8 135/98/8
f 40/97/8 135/98/8 64/96/8
f 141/99/8 78/100/8 18/105/8
f 10/67/8 121/101/8 73/103/8
f 74/102/8 121/101/8 122/102/8
f 77/104/8 18/105/8 78/329/8
f 162/106/8 76/107/8 161/107/8
f 19/108/3 21/84/3 110/110/3
f 153/109/3 110/110/3 112/109/3
f 23/75/3 22/111/3 91/113/3
f 149/112/3 91/113/3 22/111/3
f 146/114/3 25/115/3 98/116/3
f 98/116/3 26/117/3 146/114/3
f 168/75/9 90/118/9 169/119/9
f 169/119/9 28/120/9 27/120/9
f 166/121/9 86/122/9 29/330/9
f 167/124/9 31/125/9 30/125/9
f 83/127/9 167/124/9 42/127/9
f 29/128/9 32/129/9 165/129/9
f 20/130/10 33/131/10 21/331/10
f 34/133/10 132/132/10 131/332/10
f 36/134/10 96/135/10 35/333/10
f 31/125/10 38/137/10 30/125/10
f 37/138/10 152/139/10 38/137/10
f 163/141/10 100/142/10 80/144/10
f 80/144/10 36/134/10 163/141/10
f 153/66/9 111/145/9 130/334/9
f 58/67/9 39/146/9 129/67/9
f 39/146/9 60/70/9 14/70/9
f 138/148/9 67/75/9 124/75/9
f 65/150/9 136/151/9 40/71/9
f 66/149/9 137/152/9 65/150/9
f 130/153/9 34/154/9 131/154/9
f 125/156/3 41/157/3 71/160/3
f 114/84/3 70/158/3 68/84/3
f 125/156/3 70/158/3 113/159/3
f 42/161/3 84/162/3 83/161/3
f 81/164/3 154/163/3 152/335/3
f 123/165/3 67/75/3 43/166/3
f 43/166/3 122/167/3 123/165/3
f 68/84/10 115/168/10 114/84/10
f 69/169/10 160/170/10 115/168/10
f 28/171/10 147/172/10 27/171/10
f 129/67/10 44/174/10 58/67/10
f 16/176/10 128/175/10 127/336/10
f 89/177/10 148/178/10 147/337/10
f 148/178/10 101/180/10 149/180/10
f 117/84/4 47/181/4 46/182/4
f 46/182/4 9/183/4 151/183/4
f 75/185/4 48/184/4 139/187/4
f 139/187/4 48/184/4 140/75/4
f 75/185/4 161/186/4 76/186/4
f 155/188/4 100/189/4 164/189/4
f 165/115/4 85/190/4 155/188/4
f 49/191/7 109/75/7 108/192/7
f 108/192/7 141/120/7 49/191/7
f 50/194/7 96/123/7 97/198/7
f 104/195/7 51/125/7 52/197/7
f 103/196/7 52/197/7 142/196/7
f 97/198/7 24/199/7 50/194/7
f 95/200/8 53/201/8 94/203/8
f 116/202/8 94/203/8 53/201/8
f 54/205/8 87/206/8 166/338/8
f 51/125/8 106/208/8 143/210/8
f 55/209/8 143/210/8 106/208/8
f 26/212/8 88/207/8 54/339/8
